<svg width="159" height="55" viewBox="0 0 159 55" fill="none" xmlns="http://www.w3.org/2000/svg">
<path fill-rule="evenodd" clip-rule="evenodd" d="M27.7732 27.5001C27.7732 28.3047 27.5705 28.8727 27.1144 29.2514C26.6582 29.5827 26.2021 29.772 25.5939 29.772H5.72696C5.72696 31.334 5.879 32.7539 6.23377 33.9846C6.58854 35.2152 7.14603 36.3038 7.90624 37.2031C8.71714 38.1024 9.73076 38.8124 10.9471 39.2857C12.2141 39.7591 13.7346 39.9957 15.5591 39.9957C16.9781 39.9957 18.2959 39.9011 19.4108 39.6644C20.5258 39.4277 21.4888 39.1911 22.2997 38.9071C23.1106 38.6231 23.7694 38.3864 24.3269 38.1498C24.8337 37.9131 25.2392 37.8184 25.5432 37.8184C25.6953 37.8184 25.8473 37.8658 25.9487 37.9131C26.0501 38.0078 26.1514 38.1024 26.2528 38.2444C26.3035 38.3864 26.3541 38.5758 26.4048 38.8597C26.4555 39.1437 26.4555 39.4277 26.4555 39.8064C26.4555 40.0904 26.4555 40.327 26.4048 40.5164C26.4048 40.7057 26.3541 40.895 26.3035 41.037C26.2528 41.179 26.2021 41.321 26.1514 41.463C26.0501 41.605 25.9487 41.6997 25.8473 41.8417C25.746 41.9363 25.3405 42.1257 24.783 42.4096C24.1749 42.6936 23.4146 42.9303 22.4517 43.167C21.4888 43.4036 20.3738 43.6403 19.1068 43.8296C17.8397 44.0189 16.522 44.1136 15.0523 44.1136C12.5689 44.1136 10.3896 43.7823 8.51441 43.1196C6.63922 42.457 5.0681 41.5103 3.80108 40.2324C2.53405 38.9544 1.57111 37.3451 0.912259 35.4518C0.304086 33.6532 0 31.4286 0 28.8727C0 26.4588 0.354767 24.2815 1.01362 22.3409C1.67247 20.4003 2.63541 18.791 3.90244 17.4184C5.16947 16.0931 6.6899 15.0518 8.46373 14.3418C10.2376 13.6318 12.2648 13.2532 14.4441 13.2532C16.8261 13.2532 18.8533 13.6318 20.4751 14.2945C22.1476 15.0044 23.516 15.9511 24.5803 17.1817C25.6446 18.365 26.4555 19.785 26.9623 21.3943C27.4691 23.0035 27.7225 24.7548 27.7225 26.5534V27.5001H27.7732ZM22.1983 25.9855C22.249 23.2875 21.6408 21.1576 20.2724 19.5956C18.904 18.0337 16.8768 17.2764 14.2414 17.2764C12.873 17.2764 11.6566 17.513 10.643 17.9864C9.6294 18.4597 8.76782 19.1223 8.05829 19.8796C7.34875 20.6369 6.84194 21.5836 6.43649 22.6722C6.03104 23.7135 5.82832 24.8495 5.77764 25.9855H22.1983Z" fill="white"/>
<path fill-rule="evenodd" clip-rule="evenodd" d="M22.3437 1.71875C22.7987 1.71875 23.2537 1.81985 23.6581 1.97151C24.0625 2.12316 24.4669 2.37592 24.7702 2.72977C25.0735 3.03308 25.3263 3.43749 25.5285 3.8419C25.6801 4.24631 25.7812 4.70127 25.7812 5.15623C25.7812 5.61119 25.6801 6.06615 25.5285 6.47056C25.3768 6.87497 25.1241 7.27938 24.7702 7.58269C24.4669 7.886 24.0625 8.13875 23.6581 8.34096C23.2537 8.49261 22.7987 8.59371 22.3437 8.59371C21.8888 8.59371 21.4338 8.49261 21.0294 8.34096C20.625 8.18931 20.2206 7.93655 19.9173 7.58269C19.614 7.27938 19.3612 6.87497 19.159 6.47056C19.0074 6.06615 18.9062 5.61119 18.9062 5.15623C18.9062 4.70127 19.0074 4.24631 19.159 3.8419C19.3612 3.38694 19.614 3.03308 19.9678 2.67922C20.2711 2.37592 20.6756 2.12316 21.08 1.92095C21.4844 1.7693 21.8888 1.71875 22.3437 1.71875Z" fill="#ED5C10"/>
<path fill-rule="evenodd" clip-rule="evenodd" d="M8.59375 1.71875C9.04871 1.71875 9.50367 1.81985 9.90808 1.97151C10.3125 2.12316 10.7169 2.37592 11.0202 2.72977C11.3235 3.03308 11.5763 3.43749 11.7785 3.8419C11.9301 4.24631 12.0312 4.70127 12.0312 5.15623C12.0312 5.61119 11.9301 6.06615 11.7785 6.47056C11.6268 6.87497 11.3741 7.27938 11.0202 7.58269C10.7169 7.886 10.3125 8.13875 9.90808 8.34096C9.50367 8.49261 9.04871 8.59371 8.59375 8.59371C8.13878 8.59371 7.68382 8.49261 7.27941 8.34096C6.875 8.1893 6.47059 7.93655 6.16728 7.58269C5.86397 7.27938 5.61121 6.87497 5.40901 6.47056C5.25735 6.06615 5.15625 5.61119 5.15625 5.15623C5.15625 4.70127 5.25735 4.24631 5.40901 3.8419C5.56066 3.43749 5.81342 3.03308 6.16728 2.72977C6.47059 2.42647 6.875 2.17371 7.27941 1.97151C7.68382 1.7693 8.13878 1.71875 8.59375 1.71875Z" fill="#ED5C10"/>
<path fill-rule="evenodd" clip-rule="evenodd" d="M63.9087 28.3047C63.9087 30.766 63.6047 32.9906 63.0472 34.9312C62.4897 36.8718 61.6281 38.5758 60.5131 39.9011C59.3981 41.2737 58.0297 42.315 56.4079 43.0723C54.7862 43.8296 52.911 44.1609 50.833 44.1609C49.9208 44.1609 49.1099 44.0663 48.3497 43.9243C47.5894 43.7349 46.8292 43.4983 46.1197 43.1196C45.4102 42.7883 44.6499 42.315 43.9404 41.7943C43.2309 41.2737 42.4707 40.611 41.6598 39.9011V54.006C41.6598 54.1953 41.6091 54.3373 41.5077 54.432C41.4064 54.574 41.2543 54.6686 41.0516 54.7633C40.8489 54.858 40.5955 54.9053 40.19 54.9526C39.8352 55 39.3791 54.9999 38.8216 54.9999C38.2641 54.9999 37.8587 55 37.5039 54.9526C37.1491 54.9053 36.8451 54.858 36.6423 54.7633C36.4396 54.6686 36.2876 54.574 36.1862 54.432C36.0848 54.29 36.0848 54.148 36.0848 54.006V14.6731C36.0848 14.4838 36.1355 14.3418 36.1862 14.1998C36.2369 14.1051 36.3889 13.9631 36.5916 13.9158C36.7944 13.8211 37.0478 13.7738 37.3519 13.7265C37.656 13.6792 38.0614 13.6792 38.4669 13.6792C38.923 13.6792 39.3284 13.6792 39.6325 13.7265C39.9366 13.7738 40.19 13.8211 40.3927 13.9158C40.5955 14.0105 40.7475 14.1051 40.7982 14.1998C40.8995 14.2945 40.8995 14.4838 40.8995 14.6731V18.4597C41.8118 17.5604 42.6734 16.8031 43.535 16.1877C44.3965 15.5251 45.2581 15.0044 46.1197 14.5785C46.9813 14.1525 47.8428 13.8212 48.7551 13.5845C49.6674 13.3478 50.6303 13.2532 51.6439 13.2532C53.8232 13.2532 55.6984 13.6318 57.2188 14.4365C58.7393 15.2411 60.0063 16.3297 60.9692 17.7024C61.9322 19.075 62.6417 20.6843 63.0978 22.5302C63.706 24.3288 63.9087 26.2695 63.9087 28.3047ZM58.1818 28.92C58.1818 27.5001 58.0804 26.0801 57.827 24.7548C57.5736 23.4295 57.1682 22.1989 56.6107 21.1576C56.0532 20.1163 55.2423 19.2643 54.2793 18.649C53.3164 18.0337 52.1001 17.7024 50.681 17.7024C49.9715 17.7024 49.2619 17.797 48.5524 17.9864C47.8428 18.1757 47.1333 18.507 46.4238 18.933C45.7142 19.359 44.954 19.927 44.1431 20.637C43.4336 21.2996 42.572 22.1989 41.7104 23.1929V34.4105C43.2309 36.1618 44.7006 37.4871 46.069 38.3864C47.4374 39.2857 48.8565 39.7591 50.3769 39.7591C51.796 39.7591 52.9616 39.4277 53.9753 38.8124C54.9889 38.1971 55.7998 37.3451 56.4079 36.3038C57.0161 35.2625 57.4722 34.0792 57.7763 32.8013C58.0297 31.5233 58.1818 30.198 58.1818 28.92Z" fill="white"/>
<path fill-rule="evenodd" clip-rule="evenodd" d="M90.8712 35.168C90.8712 36.5879 90.5671 37.9132 90.0096 39.0019C89.4521 40.1378 88.6412 41.0845 87.5769 41.8418C86.5126 42.5991 85.2963 43.2144 83.8265 43.5931C82.3568 43.9717 80.7857 44.2084 79.0118 44.2084C77.9475 44.2084 76.9339 44.1137 75.9203 43.9717C74.9573 43.8297 74.0958 43.6404 73.2849 43.3564C72.5247 43.1198 71.8658 42.8831 71.3083 42.5991C70.7508 42.3151 70.396 42.1258 70.1426 41.8891C69.8892 41.6998 69.7372 41.3685 69.5852 40.9898C69.4838 40.6112 69.4331 40.0905 69.4331 39.4752C69.4331 39.0965 69.4331 38.7652 69.4838 38.4812C69.5345 38.1972 69.5851 38.0079 69.6358 37.8186C69.6865 37.6292 69.7879 37.5346 69.9399 37.4399C70.0413 37.3452 70.1933 37.3453 70.3454 37.3453C70.5988 37.3453 70.9535 37.4872 71.4097 37.7712C71.8658 38.0552 72.474 38.3392 73.1835 38.7179C73.893 39.0492 74.7039 39.3805 75.6669 39.6645C76.6298 39.9485 77.7448 40.0905 78.9611 40.0905C79.9241 40.0905 80.735 39.9958 81.4952 39.8065C82.2554 39.6172 82.9143 39.3332 83.4718 38.9545C84.0292 38.5759 84.4854 38.1026 84.7388 37.5819C85.0429 37.0139 85.1949 36.3513 85.1949 35.594C85.1949 34.7893 84.9922 34.1267 84.5361 33.606C84.0799 33.0854 83.5224 32.5647 82.8129 32.1861C82.1034 31.7601 81.2925 31.3814 80.3802 31.0974C79.468 30.7661 78.5557 30.4348 77.5928 30.1035C76.6298 29.7721 75.7176 29.3461 74.8053 28.9202C73.893 28.4942 73.0821 27.9262 72.3726 27.2635C71.6631 26.6009 71.1056 25.8436 70.6494 24.9443C70.1933 24.045 69.9906 22.9563 69.9906 21.7257C69.9906 20.6371 70.244 19.5484 70.7001 18.5545C71.1563 17.5605 71.8658 16.6612 72.7781 15.9039C73.6903 15.1466 74.856 14.5312 76.2244 14.0579C77.5928 13.5846 79.2145 13.3479 81.0391 13.3479C81.85 13.3479 82.6609 13.3953 83.4718 13.5373C84.2826 13.6793 84.9922 13.8213 85.651 14.0106C86.3099 14.1999 86.8674 14.3892 87.3235 14.6259C87.7796 14.8626 88.1344 15.0519 88.3878 15.1939C88.6412 15.3832 88.7933 15.5252 88.8439 15.6199C88.9453 15.7619 88.996 15.9039 88.996 16.0459C89.0467 16.1879 89.0467 16.3772 89.0974 16.6138C89.148 16.8505 89.148 17.1345 89.148 17.4658C89.148 17.8445 89.148 18.1285 89.0974 18.4125C89.0467 18.6965 88.996 18.8858 88.9453 19.0751C88.8439 19.2644 88.7933 19.3591 88.6412 19.4538C88.5399 19.5484 88.3878 19.5484 88.2865 19.5484C88.0837 19.5484 87.7796 19.4538 87.4249 19.2171C87.0194 18.9804 86.5633 18.7438 85.9551 18.4598C85.347 18.1758 84.6374 17.9391 83.8265 17.7025C83.0156 17.4658 82.0527 17.3712 81.0391 17.3712C80.0761 17.3712 79.2652 17.4658 78.5557 17.6551C77.8462 17.8445 77.238 18.1285 76.7819 18.5071C76.3257 18.8858 75.971 19.3118 75.7176 19.7851C75.4641 20.3057 75.3628 20.8264 75.3628 21.3944C75.3628 22.199 75.5655 22.909 76.0216 23.4296C76.4778 23.9976 77.0353 24.471 77.7448 24.8969C78.4543 25.3229 79.2652 25.7016 80.1775 26.0329C81.0897 26.3642 82.002 26.6956 82.9649 27.0742C83.9279 27.4529 84.8401 27.8315 85.8031 28.2575C86.7153 28.6835 87.5262 29.2515 88.2865 29.8668C88.996 30.4821 89.5535 31.2394 90.0096 32.1387C90.6178 32.896 90.8712 33.9373 90.8712 35.168Z" fill="white"/>
<path fill-rule="evenodd" clip-rule="evenodd" d="M104.302 42.8352C104.302 43.0245 104.251 43.1665 104.15 43.2612C104.048 43.3559 103.896 43.4979 103.693 43.5452C103.491 43.6399 103.237 43.6872 102.832 43.7345C102.477 43.7819 102.021 43.7818 101.463 43.7818C100.906 43.7818 100.501 43.7819 100.146 43.7345C99.791 43.6872 99.4869 43.6399 99.2842 43.5452C99.0814 43.4505 98.9294 43.3559 98.828 43.2612C98.7267 43.1665 98.7267 43.0245 98.7267 42.8352V14.6727C98.7267 14.5307 98.7774 14.3887 98.828 14.2467C98.9294 14.1047 99.0308 14.01 99.2842 13.9154C99.4869 13.8207 99.791 13.7734 100.146 13.7261C100.501 13.6787 100.957 13.6787 101.463 13.6787C102.021 13.6787 102.477 13.6787 102.832 13.7261C103.187 13.7734 103.491 13.8207 103.693 13.9154C103.896 14.01 104.048 14.1047 104.15 14.2467C104.251 14.3887 104.302 14.5307 104.302 14.6727V42.8352Z" fill="white"/>
<path fill-rule="evenodd" clip-rule="evenodd" d="M120.063 42.8354C120.063 43.0248 120.013 43.1668 119.911 43.2614C119.81 43.3561 119.658 43.4981 119.455 43.5454C119.252 43.6401 118.999 43.6874 118.594 43.7347C118.239 43.7821 117.783 43.7821 117.225 43.7821C116.668 43.7821 116.262 43.7821 115.907 43.7347C115.553 43.6874 115.249 43.6401 115.046 43.5454C114.843 43.4507 114.691 43.3561 114.59 43.2614C114.488 43.1668 114.488 43.0248 114.488 42.8354V0.993971C114.488 0.804643 114.539 0.662648 114.59 0.567984C114.691 0.425988 114.792 0.331324 115.046 0.23666C115.249 0.141996 115.553 0.0946639 115.907 0.047332C116.262 0 116.718 0 117.225 0C117.783 0 118.239 0 118.594 0.047332C118.948 0.0946639 119.252 0.141996 119.455 0.23666C119.658 0.331324 119.81 0.425988 119.911 0.567984C120.013 0.70998 120.063 0.851975 120.063 0.993971V42.8354Z" fill="white"/>
<path fill-rule="evenodd" clip-rule="evenodd" d="M158.125 28.4461C158.125 30.7654 157.821 32.848 157.162 34.7886C156.503 36.7292 155.54 38.3859 154.273 39.8058C153.006 41.2258 151.384 42.3144 149.458 43.0717C147.533 43.8764 145.303 44.255 142.718 44.255C140.235 44.255 138.055 43.9237 136.231 43.2137C134.406 42.5037 132.835 41.5098 131.619 40.2318C130.402 38.9065 129.49 37.2972 128.882 35.4513C128.274 33.558 127.97 31.4281 127.97 29.0615C127.97 26.7422 128.274 24.6596 128.933 22.719C129.592 20.7784 130.554 19.1217 131.821 17.7018C133.089 16.2818 134.71 15.2405 136.636 14.4359C138.562 13.6786 140.792 13.2999 143.377 13.2999C145.86 13.2999 148.039 13.6312 149.864 14.3412C151.688 15.0512 153.26 16.0452 154.476 17.3231C155.692 18.6484 156.604 20.2577 157.263 22.1037C157.821 23.9496 158.125 26.0795 158.125 28.4461ZM152.398 28.7775C152.398 27.2628 152.246 25.7955 151.942 24.4703C151.638 23.0976 151.131 21.9143 150.421 20.9204C149.712 19.8791 148.8 19.0744 147.583 18.5064C146.367 17.8911 144.897 17.6071 143.123 17.6071C141.502 17.6071 140.082 17.8911 138.866 18.4118C137.7 18.9324 136.687 19.7371 135.927 20.731C135.166 21.725 134.609 22.9083 134.203 24.2336C133.849 25.6062 133.646 27.0735 133.646 28.6828C133.646 30.2448 133.798 31.6647 134.102 33.0373C134.406 34.41 134.913 35.5933 135.623 36.5872C136.332 37.5812 137.295 38.3859 138.461 39.0012C139.677 39.6165 141.147 39.9005 142.921 39.9005C144.542 39.9005 145.961 39.6165 147.127 39.0958C148.343 38.5752 149.306 37.7705 150.067 36.8239C150.827 35.8299 151.384 34.694 151.739 33.3213C152.195 31.9014 152.398 30.3867 152.398 28.7775Z" fill="white"/>
</svg>
