<svg xmlns="http://www.w3.org/2000/svg" fill="none" viewBox="8.85 7.055690072639225 130.5 47.73849878934625" style="max-height: 500px" width="130.5" height="47.73849878934625">
<path fill="#253746" d="M32.0986 31C32.0986 31.6803 31.9327 32.1605 31.5595 32.4806C31.1863 32.7608 30.8131 32.9208 30.3155 32.9208H14.0606C14.0606 34.2414 14.1851 35.4419 14.4754 36.4823C14.7656 37.5228 15.2218 38.4432 15.8437 39.2036C16.5072 39.9639 17.3365 40.5641 18.3317 40.9642C19.3684 41.3645 20.6124 41.5646 22.1052 41.5646C23.2662 41.5646 24.3444 41.4846 25.2566 41.2844C26.1689 41.0843 26.9567 40.8842 27.6202 40.6441C28.2837 40.4041 28.8227 40.2039 29.2788 40.0038C29.6935 39.8038 30.0252 39.7238 30.2741 39.7238C30.3984 39.7238 30.5229 39.7638 30.6058 39.8038C30.6887 39.8838 30.7716 39.9639 30.8545 40.084C30.8961 40.2039 30.9375 40.364 30.979 40.6042C31.0205 40.8442 31.0205 41.0843 31.0205 41.4044C31.0205 41.6446 31.0205 41.8446 30.979 42.0048C30.979 42.1648 30.9375 42.3249 30.8961 42.445C30.8545 42.5649 30.8131 42.685 30.7716 42.805C30.6887 42.9251 30.6058 43.0051 30.5229 43.1252C30.4399 43.2053 30.1081 43.3653 29.652 43.6054C29.1545 43.8456 28.5324 44.0456 27.7446 44.2457C26.9567 44.4458 26.0445 44.6458 25.0078 44.806C23.9712 44.966 22.893 45.046 21.6905 45.046C19.6586 45.046 17.8756 44.7659 16.3414 44.2056C14.807 43.6454 13.5216 42.8451 12.4849 41.7646C11.4483 40.6842 10.6605 39.3236 10.1214 37.7228C9.6238 36.2023 9.375 34.3214 9.375 32.1605C9.375 30.1196 9.66527 28.2788 10.2043 26.6381C10.7434 24.9974 11.5312 23.6368 12.568 22.4763C13.6045 21.3559 14.8486 20.4755 16.2998 19.8752C17.7512 19.275 19.4099 18.9548 21.193 18.9548C23.1419 18.9548 24.8005 19.275 26.1274 19.8352C27.4959 20.4354 28.6155 21.2358 29.4862 22.2762C30.357 23.2767 31.0205 24.4772 31.4351 25.8378C31.8498 27.1983 32.0571 28.6789 32.0571 30.1996V31H32.0986ZM27.5373 29.7195C27.5788 27.4385 27.0811 25.6377 25.9615 24.3171C24.8419 22.9965 23.1833 22.3562 21.027 22.3562C19.9074 22.3562 18.9122 22.5563 18.0829 22.9566C17.2536 23.3567 16.5487 23.917 15.9682 24.5572C15.3876 25.1975 14.973 25.9978 14.6412 26.9183C14.3095 27.7987 14.1437 28.7591 14.1022 29.7195H27.5373Z" clip-rule="evenodd" fill-rule="evenodd"/>
<path fill="#ED5C10" d="M27.6563 9.20312C28.0285 9.20312 28.4008 9.2886 28.7316 9.41682C29.0626 9.54503 29.3934 9.75873 29.6416 10.0579C29.8897 10.3143 30.0965 10.6562 30.262 10.9982C30.3861 11.3401 30.4687 11.7247 30.4687 12.1094C30.4687 12.4941 30.3861 12.8787 30.262 13.2205C30.1379 13.5625 29.9311 13.9045 29.6416 14.1608C29.3934 14.4173 29.0626 14.6309 28.7316 14.8019C28.4008 14.9302 28.0285 15.0157 27.6563 15.0157C27.2841 15.0157 26.9118 14.9302 26.5809 14.8019C26.25 14.6737 25.9192 14.4601 25.671 14.1608C25.4229 13.9045 25.216 13.5625 25.0506 13.2205C24.9265 12.8787 24.8438 12.4941 24.8438 12.1094C24.8438 11.7247 24.9265 11.3401 25.0506 10.9982C25.216 10.6135 25.4229 10.3143 25.7123 10.0152C25.9605 9.75873 26.2914 9.54503 26.6223 9.37408C26.9531 9.24587 27.2841 9.20312 27.6563 9.20312Z" clip-rule="evenodd" fill-rule="evenodd"/>
<path fill="#ED5C10" d="M16.4063 9.20312C16.7785 9.20312 17.1508 9.2886 17.4816 9.41682C17.8126 9.54503 18.1434 9.75873 18.3916 10.0579C18.6397 10.3143 18.8465 10.6562 19.012 10.9982C19.1361 11.3401 19.2187 11.7247 19.2187 12.1094C19.2187 12.4941 19.1361 12.8787 19.012 13.2205C18.8879 13.5625 18.6811 13.9045 18.3916 14.1608C18.1434 14.4173 17.8126 14.6309 17.4816 14.8019C17.1508 14.9302 16.7785 15.0157 16.4063 15.0157C16.0341 15.0157 15.6618 14.9302 15.3309 14.8019C15 14.6737 14.6692 14.4601 14.421 14.1608C14.1729 13.9045 13.966 13.5625 13.8006 13.2205C13.6765 12.8787 13.5938 12.4941 13.5938 12.1094C13.5938 11.7247 13.6765 11.3401 13.8006 10.9982C13.9247 10.6562 14.1315 10.3143 14.421 10.0579C14.6692 9.80147 15 9.58778 15.3309 9.41682C15.6618 9.24587 16.0341 9.20312 16.4063 9.20312Z" clip-rule="evenodd" fill-rule="evenodd"/>
<path fill="#253746" d="M61.664 31.6803C61.664 33.7612 61.4152 35.642 60.9591 37.2828C60.503 38.9234 59.798 40.364 58.8858 41.4846C57.9735 42.645 56.8539 43.5254 55.5271 44.1657C54.2001 44.806 52.6658 45.086 50.9658 45.086C50.2194 45.086 49.5559 45.006 48.9339 44.886C48.3118 44.7259 47.6899 44.5258 47.1093 44.2057C46.5289 43.9256 45.9068 43.5254 45.3262 43.0852C44.7458 42.645 44.1237 42.0848 43.4604 41.4846V53.4097C43.4604 53.5697 43.4188 53.6897 43.3359 53.7697C43.253 53.8898 43.1286 53.9699 42.9627 54.0499C42.7969 54.1299 42.5895 54.17 42.2578 54.2099C41.9676 54.25 41.5944 54.25 41.1382 54.25C40.6821 54.25 40.3503 54.25 40.06 54.2099C39.7698 54.17 39.521 54.1299 39.3552 54.0499C39.1893 53.9699 39.0649 53.8898 38.982 53.7697C38.899 53.6498 38.899 53.5297 38.899 53.4097V20.1554C38.899 19.9952 38.9404 19.8752 38.982 19.7551C39.0234 19.6751 39.1478 19.555 39.3136 19.5151C39.4796 19.435 39.6868 19.395 39.9357 19.355C40.1845 19.3149 40.5162 19.3149 40.848 19.3149C41.2212 19.3149 41.5528 19.3149 41.8016 19.355C42.0505 19.395 42.2578 19.435 42.4237 19.5151C42.5895 19.5951 42.714 19.6751 42.7554 19.7551C42.8383 19.8352 42.8383 19.9952 42.8383 20.1554V23.3567C43.5847 22.5964 44.2897 21.9561 44.9946 21.4359C45.6994 20.8756 46.4044 20.4354 47.1093 20.0752C47.8143 19.7152 48.5192 19.435 49.2656 19.2349C50.012 19.0348 50.7998 18.9548 51.6292 18.9548C53.4122 18.9548 54.9465 19.275 56.1904 19.9553C57.4345 20.6355 58.4712 21.556 59.259 22.7164C60.0469 23.8769 60.6274 25.2375 61.0006 26.7982C61.4982 28.3189 61.664 29.9596 61.664 31.6803ZM56.9784 32.2005C56.9784 31 56.8954 29.7995 56.6881 28.6789C56.4807 27.5585 56.149 26.5181 55.6929 25.6377C55.2368 24.7573 54.5733 24.037 53.7854 23.5167C52.9976 22.9965 52.0024 22.7164 50.8413 22.7164C50.2608 22.7164 49.6803 22.7965 49.0998 22.9566C48.5192 23.1166 47.9386 23.3968 47.3582 23.7569C46.7776 24.1171 46.1557 24.5972 45.4922 25.1975C44.9116 25.7578 44.2068 26.5181 43.5018 27.3585V36.8426C44.7458 38.3232 45.9483 39.4437 47.0679 40.2039C48.1875 40.9642 49.3485 41.3645 50.5926 41.3645C51.7536 41.3645 52.7073 41.0843 53.5366 40.5641C54.366 40.0439 55.0294 39.3236 55.5271 38.4432C56.0246 37.5628 56.3978 36.5624 56.6466 35.4819C56.8539 34.4014 56.9784 33.281 56.9784 32.2005Z" clip-rule="evenodd" fill-rule="evenodd"/>
<path fill="#253746" d="M83.7241 37.4829C83.7241 38.6834 83.4754 39.8038 83.0192 40.7243C82.5631 41.6847 81.8996 42.485 81.0288 43.1252C80.1581 43.7656 79.1629 44.2858 77.9604 44.606C76.7579 44.9261 75.4723 45.1262 74.021 45.1262C73.1502 45.1262 72.3209 45.0462 71.4916 44.9261C70.7038 44.806 69.9988 44.6459 69.3354 44.4059C68.7133 44.2057 68.1743 44.0056 67.7182 43.7656C67.262 43.5255 66.9718 43.3654 66.7644 43.1653C66.5572 43.0053 66.4327 42.7251 66.3083 42.405C66.2254 42.0848 66.184 41.6446 66.184 41.1244C66.184 40.8043 66.184 40.5242 66.2254 40.2841C66.2669 40.044 66.3083 39.884 66.3498 39.7238C66.3912 39.5638 66.4741 39.4837 66.5986 39.4037C66.6815 39.3237 66.8059 39.3237 66.9304 39.3237C67.1376 39.3237 67.4279 39.4438 67.8011 39.6838C68.1743 39.9239 68.6719 40.164 69.2524 40.4842C69.8329 40.7642 70.4964 41.0444 71.2843 41.2846C72.0721 41.5246 72.9844 41.6446 73.9796 41.6446C74.7674 41.6446 75.4309 41.5646 76.0529 41.4045C76.6748 41.2445 77.214 41.0044 77.6701 40.6842C78.1262 40.3641 78.4994 39.964 78.7068 39.5238C78.9556 39.0435 79.08 38.4834 79.08 37.8431C79.08 37.1628 78.914 36.6025 78.5408 36.1623C78.1676 35.7221 77.7115 35.2819 77.131 34.9618C76.5505 34.6017 75.887 34.2815 75.1406 34.0414C74.3942 33.7612 73.6478 33.4811 72.86 33.2011C72.0721 32.9209 71.3257 32.5608 70.5793 32.2006C69.8329 31.8404 69.1694 31.3603 68.589 30.8C68.0084 30.2397 67.5523 29.5995 67.1791 28.8391C66.8059 28.0788 66.6401 27.1585 66.6401 26.1179C66.6401 25.1976 66.8473 24.2772 67.2205 23.4368C67.5937 22.5965 68.1743 21.8361 68.9207 21.1958C69.6671 20.5556 70.6208 20.0354 71.7404 19.6352C72.86 19.235 74.1869 19.0349 75.6797 19.0349C76.3432 19.0349 77.0066 19.075 77.6701 19.195C78.3336 19.3151 78.914 19.4351 79.4531 19.5952C79.9922 19.7553 80.4484 19.9153 80.8216 20.1154C81.1948 20.3154 81.485 20.4756 81.6923 20.5956C81.8996 20.7557 82.0241 20.8757 82.0655 20.9557C82.1484 21.0758 82.1899 21.1959 82.1899 21.3159C82.2314 21.436 82.2314 21.596 82.2728 21.7962C82.3144 21.9962 82.3144 22.2363 82.3144 22.5165C82.3144 22.8366 82.3144 23.0767 82.2728 23.3167C82.2314 23.5569 82.1899 23.717 82.1484 23.877C82.0655 24.0371 82.0241 24.1171 81.8996 24.1971C81.8167 24.2772 81.6923 24.2772 81.6094 24.2772C81.4435 24.2772 81.1948 24.1971 80.9045 23.9971C80.5727 23.797 80.1995 23.5969 79.702 23.3568C79.2043 23.1167 78.6238 22.9166 77.9604 22.7165C77.2969 22.5164 76.509 22.4364 75.6797 22.4364C74.8919 22.4364 74.2284 22.5164 73.6478 22.6765C73.0673 22.8366 72.5698 23.0767 72.1966 23.3968C71.8234 23.717 71.5331 24.0771 71.3257 24.4773C71.1184 24.9175 71.0354 25.3576 71.0354 25.8379C71.0354 26.5182 71.2013 27.1184 71.5745 27.5586C71.9477 28.0389 72.4038 28.439 72.9844 28.7992C73.5649 29.1593 74.2284 29.4794 74.9748 29.7596C75.7212 30.0397 76.4676 30.3197 77.2554 30.6399C78.0433 30.96 78.7897 31.2801 79.5775 31.6403C80.3239 32.0005 80.9874 32.4807 81.6094 33.001C82.1899 33.5212 82.646 34.1615 83.0192 34.9218C83.5169 35.5621 83.7241 36.4425 83.7241 37.4829Z" clip-rule="evenodd" fill-rule="evenodd"/>
<path fill="#253746" d="M94.7128 43.9655C94.7128 44.1256 94.6713 44.2456 94.5884 44.3256C94.5055 44.4057 94.381 44.5258 94.2152 44.5658C94.0493 44.6458 93.842 44.6858 93.5103 44.7259C93.22 44.7658 92.8468 44.7658 92.3907 44.7658C91.9346 44.7658 91.6028 44.7658 91.3125 44.7259C91.0223 44.6858 90.7735 44.6458 90.6076 44.5658C90.4418 44.4857 90.3173 44.4057 90.2344 44.3256C90.1515 44.2456 90.1515 44.1256 90.1515 43.9655V20.1553C90.1515 20.0352 90.1929 19.9151 90.2344 19.7951C90.3173 19.675 90.4003 19.595 90.6076 19.515C90.7735 19.435 91.0223 19.3949 91.3125 19.3549C91.6028 19.3149 91.976 19.3149 92.3907 19.3149C92.8468 19.3149 93.22 19.3149 93.5103 19.3549C93.8006 19.3949 94.0493 19.435 94.2152 19.515C94.381 19.595 94.5055 19.675 94.5884 19.7951C94.6713 19.9151 94.7128 20.0352 94.7128 20.1553V43.9655Z" clip-rule="evenodd" fill-rule="evenodd"/>
<path fill="#253746" d="M107.609 43.9656C107.609 44.1256 107.567 44.2457 107.484 44.3257C107.401 44.4058 107.277 44.5258 107.111 44.5658C106.945 44.6458 106.738 44.6859 106.406 44.726C106.116 44.7659 105.743 44.7659 105.287 44.7659C104.83 44.7659 104.499 44.7659 104.208 44.726C103.918 44.6859 103.669 44.6458 103.504 44.5658C103.338 44.4858 103.213 44.4058 103.13 44.3257C103.047 44.2457 103.047 44.1256 103.047 43.9656V8.59036C103.047 8.4303 103.089 8.31024 103.13 8.2302C103.213 8.11016 103.296 8.03012 103.504 7.95008C103.669 7.87005 103.918 7.83004 104.208 7.79001C104.499 7.75 104.872 7.75 105.287 7.75C105.743 7.75 106.116 7.75 106.406 7.79001C106.696 7.83004 106.945 7.87005 107.111 7.95008C107.277 8.03012 107.401 8.11016 107.484 8.2302C107.567 8.35026 107.609 8.47031 107.609 8.59036V43.9656Z" clip-rule="evenodd" fill-rule="evenodd"/>
<path fill="#253746" d="M138.75 31.8004C138.75 33.7611 138.501 35.5219 137.961 37.1627C137.423 38.8034 136.635 40.204 135.599 41.4044C134.562 42.6049 133.235 43.5254 131.659 44.1657C130.083 44.8459 128.259 45.166 126.144 45.166C124.112 45.166 122.329 44.886 120.836 44.2857C119.344 43.6854 118.058 42.8451 117.063 41.7646C116.068 40.6441 115.321 39.2835 114.824 37.7229C114.326 36.1221 114.077 34.3214 114.077 32.3206C114.077 30.3597 114.326 28.5989 114.865 26.9583C115.404 25.3176 116.192 23.917 117.229 22.7164C118.266 21.5159 119.592 20.6355 121.169 19.9553C122.744 19.315 124.568 18.9949 126.683 18.9949C128.715 18.9949 130.497 19.2749 131.99 19.8752C133.483 20.4755 134.769 21.3158 135.764 22.3963C136.759 23.5168 137.505 24.8774 138.045 26.438C138.501 27.9987 138.75 29.7994 138.75 31.8004ZM134.064 32.0805C134.064 30.7999 133.94 29.5593 133.691 28.4389C133.442 27.2784 133.027 26.278 132.447 25.4376C131.867 24.5572 131.12 23.8769 130.125 23.3968C129.129 22.8764 127.927 22.6364 126.476 22.6364C125.149 22.6364 123.987 22.8764 122.993 23.3166C122.039 23.7568 121.209 24.4372 120.588 25.2775C119.966 26.1178 119.509 27.1183 119.178 28.2388C118.887 29.3993 118.722 30.6398 118.722 32.0004C118.722 33.3209 118.846 34.5215 119.095 35.6821C119.344 36.8425 119.758 37.8429 120.338 38.6833C120.919 39.5237 121.707 40.204 122.661 40.7242C123.656 41.2444 124.859 41.4845 126.309 41.4845C127.637 41.4845 128.798 41.2444 129.751 40.8042C130.747 40.364 131.534 39.6837 132.157 38.8834C132.779 38.0431 133.235 37.0827 133.525 35.9221C133.898 34.7215 134.064 33.441 134.064 32.0805Z" clip-rule="evenodd" fill-rule="evenodd"/>
</svg>