<?xml version="1.0" encoding="UTF-8"?>
<svg version="1.1" xmlns="http://www.w3.org/2000/svg" width="800" height="800">
<path d="M0 0 C264 0 528 0 800 0 C800 264 800 528 800 800 C536 800 272 800 0 800 C0 536 0 272 0 0 Z " fill="#FEFEFE" transform="translate(0,0)"/>
<path d="M0 0 C1.09495033 -0.00855011 1.09495033 -0.00855011 2.21202087 -0.01727295 C3.74899886 -0.0266542 5.28599633 -0.03322928 6.82299805 -0.03710938 C9.12261038 -0.04675034 11.42130203 -0.07781218 13.72070312 -0.109375 C23.58496764 -0.18019876 32.46374246 0.87789039 42.08984375 3.203125 C42.98324463 3.40196289 43.87664551 3.60080078 44.79711914 3.80566406 C76.78581543 11.01825604 105.30067214 30.5120411 123.3828125 58.01196289 C132.38357413 72.34259432 138.71643127 87.89873637 143.08984375 104.203125 C143.3940625 105.31945312 143.69828125 106.43578125 144.01171875 107.5859375 C144.85937779 111.10631739 145.52031783 114.62967718 146.08984375 118.203125 C146.22519531 119.03440918 146.36054687 119.86569336 146.5 120.72216797 C148.7799171 135.39014812 149.38233354 149.88791695 149.40234375 164.703125 C149.4075856 165.986427 149.4075856 165.986427 149.41293335 167.2956543 C149.41847356 169.73381791 149.40805363 172.17127797 149.390625 174.609375 C149.39140045 175.34776611 149.3921759 176.08615723 149.39297485 176.84692383 C149.32192498 181.97104377 149.32192498 181.97104377 147.08984375 184.203125 C143.99359633 184.39692275 140.98704315 184.46340874 137.88986206 184.44363403 C136.44172125 184.44619731 136.44172125 184.44619731 134.96432507 184.44881237 C131.70905284 184.45212306 128.4539839 184.44107763 125.19873047 184.43017578 C122.87334193 184.42961201 120.54795303 184.42992756 118.2225647 184.43106079 C111.89227558 184.43163663 105.56206165 184.41984502 99.23179007 184.40591288 C93.29173082 184.39470609 87.3516746 184.39266871 81.41160621 184.39060913 C69.6440188 184.38622893 57.87645908 184.37291104 46.10888672 184.35400391 C34.67594542 184.3356535 23.24301164 184.32149289 11.81005859 184.31298828 C11.10565308 184.31246283 10.40124757 184.31193739 9.67549644 184.31139602 C6.14179694 184.30878599 2.60809739 184.30625857 -0.9256022 184.30377221 C-30.25380474 184.2830296 -59.5819802 184.24764687 -88.91015625 184.203125 C-88.59518649 186.92478468 -88.27882602 189.64627074 -87.96166992 192.36767578 C-87.87318535 193.13352493 -87.78470078 193.89937408 -87.69353485 194.68843079 C-84.44383509 222.50683229 -76.12495827 247.25314572 -55.91015625 267.203125 C-55.15863281 267.95335937 -54.40710938 268.70359375 -53.6328125 269.4765625 C-35.22491242 286.85255498 -8.46136286 292.89874484 16.1940918 292.60766602 C39.05856228 291.90266626 62.47785737 284.42515865 79.08984375 268.203125 C84.70250328 261.709466 88.7591836 254.4544859 92.64453125 246.85546875 C94.08984375 244.203125 94.08984375 244.203125 96.08984375 242.203125 C99.1644998 242.74823334 102.07771135 243.40934215 105.08984375 244.203125 C105.97478516 244.42452148 106.85972656 244.64591797 107.77148438 244.87402344 C110.63198737 245.59267694 113.48640743 246.33192556 116.33984375 247.078125 C117.3467627 247.34133545 118.35368164 247.6045459 119.39111328 247.87573242 C140.26576968 253.37905093 140.26576968 253.37905093 142.08984375 255.203125 C142.33196245 269.00389098 132.53310685 282.04799756 124.08984375 292.203125 C123.38085938 293.06421875 122.671875 293.9253125 121.94140625 294.8125 C103.76593524 315.94066485 77.14230707 329.49538918 50.02734375 334.890625 C48.51043945 335.20870117 48.51043945 335.20870117 46.96289062 335.53320312 C36.92064863 337.58303616 27.20450662 338.38016462 16.96484375 338.328125 C15.95566895 338.32329102 14.94649414 338.31845703 13.90673828 338.31347656 C-30.41622884 337.96064288 -66.78682428 324.23159269 -98.30859375 292.8125 C-125.04835686 264.47773347 -138.81638563 221.64014829 -139.1484375 183.17578125 C-139.15818604 182.23731857 -139.16793457 181.2988559 -139.17797852 180.33195496 C-139.3430808 160.32867831 -139.46741092 140.79747502 -134.91015625 121.203125 C-134.62132568 119.94677246 -134.62132568 119.94677246 -134.32666016 118.66503906 C-133.08050904 113.43266186 -131.60382322 108.30739394 -129.91015625 103.203125 C-129.68602051 102.52636719 -129.46188477 101.84960938 -129.23095703 101.15234375 C-121.83131688 79.30330042 -110.46734882 59.24757574 -94.91015625 42.203125 C-93.92982422 41.11644531 -93.92982422 41.11644531 -92.9296875 40.0078125 C-69.0953462 14.90298392 -34.53851599 0.21674045 0 0 Z " fill="#242845" transform="translate(393.91015625,288.796875)"/>
<path d="M0 0 C14.8515429 13.05068216 24.24025771 27.95440371 30.125 46.6875 C30.4653125 47.76515625 30.805625 48.8428125 31.15625 49.953125 C33.63206755 59.07697114 33.65779262 68.30215314 33.125 77.6875 C31.44786809 79.36463191 29.39284234 78.80968508 27.15389246 78.81658131 C26.07852357 78.81221205 26.07852357 78.81221205 24.98143005 78.80775452 C24.22511844 78.80860894 23.46880683 78.80946337 22.68957669 78.81034368 C20.13604518 78.81200076 17.58257827 78.80647342 15.02905273 78.80102539 C13.20626833 78.80074354 11.3834838 78.80090121 9.56069946 78.8014679 C4.59603112 78.80175596 -0.36861328 78.79585779 -5.33327603 78.78889394 C-10.51563475 78.78266188 -15.69799395 78.78205672 -20.88035583 78.78086853 C-30.70117558 78.77775478 -40.52198426 78.76954079 -50.34279913 78.75951904 C-61.52035906 78.74835927 -72.69791952 78.7428478 -83.87548363 78.73782361 C-106.87532857 78.72735822 -129.87516367 78.70975792 -152.875 78.6875 C-152.57126392 75.7939573 -152.26282336 72.90104622 -151.95166016 70.00830078 C-151.86654678 69.19279251 -151.78143341 68.37728424 -151.69374084 67.5370636 C-151.09173121 61.98617287 -150.19352054 56.81649918 -148.25 51.5625 C-147.8619519 50.46494385 -147.8619519 50.46494385 -147.46606445 49.34521484 C-138.45876843 24.72297438 -121.87433958 2.41009324 -97.87841797 -9.28564453 C-66.85360159 -23.28492315 -27.27324228 -21.35258044 0 0 Z " fill="#FEFEFE" transform="translate(457.875,351.3125)"/>
<path d="M0 0 C1.41792154 1.03283853 2.8153594 2.09457406 4.1875 3.1875 C4.79078125 3.66574219 5.3940625 4.14398438 6.015625 4.63671875 C14.77093419 12.46522719 20.55082672 24.12596081 21.46484375 35.69921875 C22.08124016 47.7919039 19.86743953 60.00125111 11.7734375 69.4921875 C11.25007813 70.05164063 10.72671875 70.61109375 10.1875 71.1875 C9.66414063 71.78820312 9.14078125 72.38890625 8.6015625 73.0078125 C-0.684333 83.07843157 -12.29671121 87.07224347 -25.8125 87.625 C-36.28299153 87.3068741 -45.71461248 83.7708971 -53.8125 77.1875 C-54.48796875 76.65898437 -55.1634375 76.13046875 -55.859375 75.5859375 C-63.10314671 69.21254146 -68.82898294 58.63913485 -70.8125 49.1875 C-71.65906414 33.7327826 -69.85277188 20.87888687 -59.5 8.9375 C-55.60400641 4.80813575 -51.53607724 1.32612417 -46.8125 -1.8125 C-45.966875 -2.39 -45.12125 -2.9675 -44.25 -3.5625 C-30.60082324 -10.56207782 -12.56367087 -7.86283428 0 0 Z " fill="#ED5C11" transform="translate(497.8125,146.8125)"/>
<path d="M0 0 C9.9305268 7.3932856 18.43493487 18.22211443 20.30859375 30.71875 C21.4447931 45.07746931 19.7499211 58.22305975 10.30859375 69.71875 C1.66151658 79.81943066 -8.73762449 85.77905732 -22.04296875 87.03515625 C-36.30357914 87.52526592 -47.83477114 83.12461732 -58.31640625 73.59375 C-68.09734956 63.26689358 -72.44535427 50.52392059 -72.10546875 36.48046875 C-70.99515851 26.393405 -67.96715701 16.05846341 -60.69140625 8.71875 C-59.97082031 7.97238281 -59.25023437 7.22601563 -58.5078125 6.45703125 C-42.35765737 -9.17631892 -19.25986052 -12.57283695 0 0 Z " fill="#ED5C11" transform="translate(351.69140625,147.28125)"/>
<path d="M0 0 C0.33 0 0.66 0 1 0 C1 3.3 1 6.6 1 10 C-2.3 10 -5.6 10 -9 10 C-8.2575 9.46375 -7.515 8.9275 -6.75 8.375 C-3.82649095 5.85015128 -2.06298806 3.24183838 0 0 Z " fill="#000000" transform="translate(799,790)"/>
<path d="M0 0 C0.53625 0.7425 1.0725 1.485 1.625 2.25 C4.14984872 5.17350905 6.75816162 6.93701194 10 9 C10 9.33 10 9.66 10 10 C6.7 10 3.4 10 0 10 C0 6.7 0 3.4 0 0 Z " fill="#000000" transform="translate(0,790)"/>
<path d="M0 0 C3.3 0 6.6 0 10 0 C10 3.3 10 6.6 10 10 C9.46375 9.2575 8.9275 8.515 8.375 7.75 C5.85015128 4.82649095 3.24183838 3.06298806 0 1 C0 0.67 0 0.34 0 0 Z " fill="#000000" transform="translate(790,0)"/>
<path d="M0 0 C3.3 0 6.6 0 10 0 C9.2575 0.53625 8.515 1.0725 7.75 1.625 C4.82649095 4.14984872 3.06298806 6.75816162 1 10 C0.67 10 0.34 10 0 10 C0 6.7 0 3.4 0 0 Z " fill="#000000" transform="translate(0,0)"/>
</svg>
